PathFileType	4	(X/Y/Z)	C:/Users/beibeiliu/ov580/test_trc/User2\sequence.14_training_dense_left.trc
DataRate	CameraRate	NumFrames	NumMarkers	Units	OrigDataRate	OrigDataStartFrame	OrigNumFrames
120	120	22	19	mm	120	211	420
Frame#	Time	ThumbCMC			ThumbMCP			ThumbIP			ThumbTip			IndexMCP			IndexPIP			IndexTip			MiddleMCP			MiddlePIP			MiddleTip			RingMCP			RingPIP			RingTip			PinkyMCP			PinkyPIP			PinkyTip			BackHand1			BackHand2			BackHand3	
		X0	Y0	Z0	X1	Y1	Z1	X2	Y2	Z2	X3	Y3	Z3	X4	Y4	Z4	X5	Y5	Z5	X6	Y6	Z6	X7	Y7	Z7	X8	Y8	Z8	X9	Y9	Z9	X10	Y10	Z10	X11	Y11	Z11	X12	Y12	Z12	X13	Y13	Z13	X14	Y14	Z14	X15	Y15	Z15	X16	Y16	Z16	X17	Y17	Z17	X18	Y18	Z18	
210	1.75	-95.0306	8.33028	111.641	-81.283	-20.1364	92.5054	-82.2834	-41.0955	62.118	-97.1447	-53.2103	38.8235	-95.963	32.2385	33.2238	-90.6539	32.6557	4.63906	-92.9772	29.7325	-20.0462	-114.075	4.88152	21.3558	-103.041	-26.9291	15.7845	-104.155	-42.5022	57.6192	-135.188	-6.85341	23.4877	-120.342	-33.0902	19.5326	-114.634	-45.6868	53.8751	-164.112	-0.504856	37.4987	-162.933	-4.35145	9.86186	-160.021	-2.13033	-13.9221	-153.924	26.1591	80.9266	-164.369	28.5963	111.991	-124.891	37.4678	97.6124	
211	1.75833	-96.266	12.7944	115.323	-77.9723	-10.2434	90.1088	-70.9281	-30.0155	59.5325	-83.3435	-40.0952	39.3723	-91.515	46.0718	38.1985	-87.6412	48.1578	12.9349	-85.5849	50.8129	-17.0309	-108.419	19.1389	23.6994	-93.1323	-11.7936	14.1431	-96.2527	-32.9304	52.8625	-125.494	5.16528	19.3024	-109.422	-22.6715	16.6566	-106.696	-35.5892	51.8891	-154.775	9.56548	31.7542	-151.66	7.0545	8.91129	-147.927	11.3363	-14.8176	-153.949	29.1437	76.6801	-164.235	29.5513	106.928	-123.5	44.4567	102.27	
212	1.76667	-91.6563	21.1333	117.566	-69.4393	-0.380446	95.6186	-63.4393	-15.7461	60.5149	-72.6862	-26.7003	38.2272	-92.4476	56.8506	42.2862	-85.89	63.4012	18.4539	-81.6173	68.8895	-8.89935	-101.077	33.1154	28.7725	-87.4559	0.306283	14.3317	-84.4882	-21.2768	48.9219	-119.669	17.9428	22.1307	-99.8494	-9.27921	16.6791	-97.2594	-24.8088	45.2446	-148.807	13.6665	34.8927	-145.35	14.9507	6.73862	-143.503	16.3445	-17.0154	-153.87	30.5821	77.747	-166.875	30.1653	108.482	-129.515	44.5297	101.614	
213	1.775	-98.3457	25.8617	118.322	-68.0679	8.08902	95.3106	-60.4475	-3.68019	61.9176	-64.623	-14.3208	33.1836	-96.9122	65.9946	41.9343	-88.696	74.7869	20.4421	-87.849	78.9934	-4.45815	-99.9143	39.7683	24.1295	-81.3083	14.4846	13.4005	-80.7732	-13.4992	43.6169	-118.866	24.4199	21.2803	-95.4672	1.15247	13.8545	-88.9134	-15.2938	43.1498	-145.224	17.768	30.3422	-139.801	20.8346	3.79278	-139.486	25.5153	-20.5936	-154.612	31.98	75.3496	-167.061	27.5114	105.465	-130.88	48.6626	105.837	
214	1.78333	-98.2719	31.3035	116.298	-70.7168	16.2154	90.4373	-58.6067	3.79506	59.6071	-61.6586	-7.54083	36.75	-101.224	72.1506	42.1922	-96.1819	78.8284	18.5539	-91.1045	88.928	-7.94545	-104.397	46.3293	26.0696	-76.8545	20.3316	14.3067	-73.5668	-4.73588	44.0444	-120.336	26.5831	19.5748	-97.046	6.74653	10.0844	-88.3268	-11.8339	42.68	-146.162	18.2867	28.1265	-140.99	20.9375	0.0546443	-140.457	26.8459	-23.5853	-154.671	35.3563	72.9014	-166.407	28.0268	104.122	-136.995	51.7209	101.833	
215	1.79167	-100.219	33.2716	110.243	-72.1994	20.3007	88.0287	-58.9781	7.36194	56.9004	-61.6474	-4.67376	34.76	-109.459	68.5337	41.1894	-105.443	77.7696	15.2794	-102.949	85.2955	-10.3352	-109.881	43.7378	19.1468	-84.7667	23.6968	8.35372	-74.8951	-3.17055	41.3985	-120.633	26.3644	14.5275	-100.704	4.78901	7.21602	-85.6222	-9.22978	36.9249	-150.225	14.4973	24.4196	-145.018	16.996	2.08059	-145.468	24.0977	-22.8505	-157.608	29.8405	71.4558	-168.538	27.88	105.093	-138.602	52.7925	97.0008	
216	1.8	-102.681	34.058	109.238	-75.4242	20.467	79.8815	-61.532	7.72127	52.3353	-68.705	-5.62201	26.9919	-117.029	66.0428	33.6759	-115.362	73.3633	4.20623	-115.384	79.6389	-18.1617	-117.058	42.3203	17.7313	-89.6206	17.7147	2.82508	-81.988	-5.78364	35.4648	-130.644	20.5996	15.8904	-106.411	-0.18819	4.48485	-88.5093	-12.6678	34.0587	-154.467	10.5767	25.7548	-153.022	9.61495	2.54306	-155.061	16.3659	-22.1712	-159.549	29.671	71.2203	-170.692	22.5941	101.072	-141.793	49.2924	94.2372	
217	1.80833	-100.771	36.0595	99.1733	-78.0527	19.5614	73.1149	-67.0479	4.11521	47.3997	-75.9202	-11.4486	24.2672	-126.099	59.4325	25.3568	-127.789	62.1277	1.61479	-129.355	68.5863	-26.0973	-127.1	31.8374	8.39518	-101.957	10.1808	-3.13744	-86.5327	-10.3364	28.5849	-138.164	10.237	11.1479	-117.408	-9.48817	1.20162	-93.2514	-18.3154	31.0637	-162.047	-0.746446	29.8871	-166.363	-4.20233	4.30401	-168.969	0.921742	-22.566	-164.405	24.0515	70.9432	-171.119	19.1746	104.202	-145.578	46.1124	90.6712	
218	1.81667	-105.45	35.2464	92.8139	-81.4924	19.1911	69.9702	-71.9697	1.49074	40.0822	-79.3121	-18.6109	19.8232	-137.921	48.0272	20.9955	-141.566	48.6613	-4.55553	-146.425	52.1566	-32.7604	-140.143	18.5549	5.93286	-115.227	-2.42304	-6.24169	-91.6931	-15.7288	26.3878	-148.765	-1.95429	13.5294	-121.414	-18.7922	0.835925	-100.431	-26.5585	26.0707	-169.741	-14.0572	34.8125	-173.002	-14.8341	5.55676	-181.374	-15.3508	-18.2836	-168.843	15.2107	71.8702	-175.176	14.5221	103.549	-152.236	42.3839	89.2752	
219	1.825	-111.412	36.1232	88.7604	-83.9782	21.4794	65.2504	-74.6455	-0.266981	34.2745	-80.0597	-22.0699	22.1926	-148.049	39.0649	17.3649	-153.956	35.5725	-8.92906	-159.73	34.8231	-39.9502	-146.09	8.13688	7.38545	-119.994	-13.2607	-6.73583	-93.8514	-20.2232	24.6791	-150.21	-14.1927	10.794	-125.637	-25.5716	1.54936	-98.5453	-29.7422	28.4347	-168.988	-22.44	35.4987	-176.455	-32.3859	12.478	-181.756	-33.4421	-11.8188	-170.938	4.95233	71.2735	-176.245	11.2266	103.495	-157.538	36.2923	82.7341	
220	1.83333	-117.227	40.316	85.9289	-88.4221	26.2376	62.9013	-71.8399	5.32968	37.4426	-78.5582	-21.3779	23.5925	-155.09	27.7904	14.3057	-159.91	23.9507	-14.7441	-164.665	20.3197	-38.855	-146.052	1.05314	7.47453	-113.837	-15.3087	-6.30324	-87.6422	-14.7789	26.8383	-147.635	-24.4746	12.0297	-120.474	-35.3619	5.30986	-95.1852	-28.6098	29.4481	-167.75	-37.1952	35.664	-170.108	-45.0071	15.1306	-174.299	-50.1394	-11.8375	-171.96	-7.06013	70.3839	-174.575	3.85325	101.015	-162.842	32.3306	78.9593	
221	1.84167	-124.668	43.6426	83.7189	-91.9505	30.975	61.1846	-72.3621	9.46822	37.7925	-71.609	-17.4912	26.8024	-157.747	16.4054	13.9222	-160.612	10.1533	-12.7723	-163.734	2.18766	-40.4322	-142.454	-7.89619	6.59346	-106.431	-20.748	-0.867857	-82.7862	-11.0955	32.5711	-139.954	-29.2303	16.2098	-109.112	-36.4429	10.3013	-86.6862	-24.2528	37.7607	-156.61	-42.8824	38.6694	-156.85	-56.9349	17.7076	-157.631	-67.8441	-6.96352	-168.302	-13.0009	70.3514	-177.912	-5.6069	106.827	-168.423	26.5579	75.8828	
222	1.85	-134.712	42.1684	82.4054	-99.0418	35.2938	61.6964	-74.6817	18.0056	40.2286	-68.5504	-11.2237	32.0499	-158.66	7.64424	14.9379	-158.115	-1.08329	-11.3949	-158.455	-11.7661	-36.7578	-138.17	-16.1565	12.5344	-98.366	-18.5367	4.06736	-79.0507	-3.7194	37.2319	-129.265	-34.9421	20.6752	-98.2536	-35.8616	16.6602	-79.489	-18.2963	42.6447	-142.616	-49.1178	49.793	-138.211	-66.8744	21.8493	-131.371	-77.1978	-1.73777	-164.486	-23.5629	74.6229	-174.391	-11.2827	106.274	-172.686	14.4957	80.3276	
223	1.85833	-145.37	42.6512	80.9812	-109.804	42.8591	67.2756	-83.1344	27.764	48.1445	-65.7391	4.57296	38.0009	-157.631	-3.5981	15.657	-153.927	-15.9251	-8.10342	-150.716	-28.6652	-33.669	-129.414	-24.746	17.4881	-94.7586	-16.8239	7.82871	-77.5555	7.5726	38.7969	-120.769	-36.5602	28.6968	-87.7331	-28.8607	25.0816	-76.5938	-6.2873	45.8033	-131.328	-53.1791	51.9436	-119.685	-65.8355	29.3258	-104.547	-76.2449	8.23528	-161.706	-26.9263	77.8723	-173.327	-22.5601	108.353	-174.566	5.43204	80.2642	
224	1.86667	-153.781	38.2506	80.4444	-118.981	41.3958	64.102	-87.1486	40.1538	47.4009	-67.556	17.0081	40.8768	-156.189	-11.8646	16.3836	-149.656	-25.2219	-8.0913	-143.695	-36.1629	-32.7142	-123.047	-26.9795	19.7846	-87.8621	-13.8667	14.8631	-80.4712	16.2063	40.3491	-113.875	-37.251	37.5244	-80.606	-24.2758	31.0911	-75.7895	4.23646	49.5048	-119.926	-55.5993	60.2331	-104.662	-67.5323	40.1269	-88.6331	-73.9284	16.4728	-156.054	-33.3496	84.5759	-172.848	-25.2251	112.544	-178.335	-0.48305	77.8757	
225	1.875	-161.702	37.9247	79.0625	-127.977	49.2413	62.1699	-98.5664	43.1227	49.958	-72.6248	22.2802	40.5828	-153.618	-18.9355	16.4895	-147.361	-27.9155	-8.43255	-137.443	-42.576	-25.3536	-124.643	-25.6018	23.6065	-88.1949	-11.8033	17.5458	-84.0937	19.4198	41.3958	-105.298	-36.0729	37.8363	-81.6677	-15.5819	31.1739	-77.5844	11.0478	52.0459	-113.494	-50.3698	61.0774	-96.6553	-62.2404	43.5542	-82.0354	-73.5635	23.3216	-154.299	-34.9371	86.3385	-169.879	-25.1905	115.881	-178.713	-5.24615	80.1458	
226	1.88333	-166.158	35.8384	77.4881	-133.205	45.7298	62.6308	-100.118	46.9351	43.0223	-77.4697	26.0751	40.0921	-153.633	-18.6465	18.9463	-145.357	-31.1788	-6.16696	-135.918	-42.9951	-26.2584	-121.291	-24.8673	23.0288	-88.5913	-4.04125	17.5061	-90.6416	26.0016	42.3835	-105.639	-30.2779	36.7813	-80.3105	-11.7841	34.293	-83.9016	20.0523	53.5346	-108.545	-50.1581	63.4515	-91.7605	-60.129	46.0963	-82.7635	-67.6386	26.0391	-148.232	-37.2686	86.1304	-168.853	-27.1069	112.886	-179.079	-9.90986	83.0511	
227	1.89167	-169.984	32.8628	80.0519	-140.444	47.1641	60.5669	-108.565	48.3762	43.6812	-84.1223	32.1701	39.2844	-154.372	-18.1817	19.2479	-147.186	-28.5225	-5.5932	-133.37	-40.7639	-30.4849	-121.653	-20.5143	20.5997	-91.9411	4.13166	13.9789	-96.4261	32.904	41.0202	-101.346	-27.846	35.9295	-81.8757	-2.54825	30.0604	-87.8096	26.4305	52.9811	-107.779	-41.7944	63.6586	-91.321	-52.6445	47.0901	-79.5492	-65.6559	28.8574	-149.349	-34.9007	82.113	-164.017	-28.1391	113.823	-181.081	-11.5499	78.0412	
228	1.9	-175.334	32.7914	78.5556	-148.271	50.745	60.2563	-116.777	54.1677	41.6307	-88.6695	41.86	32.1044	-153.477	-18.9293	15.9464	-146.607	-27.2424	-7.0995	-135.409	-37.1832	-34.3413	-121.239	-16.2102	18.2223	-95.4446	9.95358	12.821	-101.306	35.8448	40.0189	-103.836	-23.2894	37.2261	-85.7575	4.17087	25.895	-91.8286	30.4	45.3445	-103.693	-37.4702	62.211	-87.2237	-48.5667	39.6013	-78.1158	-55.2598	19.1561	-144.823	-33.3087	83.7179	-163.144	-28.4468	111.866	-180.746	-11.7215	80.352	
229	1.90833	-178.247	32.0313	79.0007	-155.642	54.5925	59.3876	-125.739	59.904	39.1536	-96.5622	46.7594	29.0608	-160.677	-12.8995	14.8406	-150.918	-21.9524	-9.90698	-138.503	-29.9278	-32.8975	-127.411	-9.68345	17.1675	-102.163	21.3372	8.47264	-107.59	42.9034	38.6184	-105.153	-15.4083	29.6525	-87.8616	11.8267	23.9892	-99.0591	38.3508	48.5793	-101.906	-31.7066	53.8427	-89.1912	-36.4388	38.3332	-76.242	-47.8576	16.8091	-144.51	-27.5288	81.3897	-158.308	-28.2346	112.433	-176.41	-14.061	78.3925	
230	1.91667	-183.443	34.0348	79.8184	-159.893	55.3309	56.4229	-133.54	65.6765	36.4635	-106.004	55.5709	27.149	-164.064	-9.20389	15.3997	-153.983	-17.7865	-12.6944	-141.903	-25.2838	-36.908	-127.409	-4.8672	15.1936	-109.847	28.4196	4.49548	-119.725	52.9198	37.4722	-112.451	-5.20295	24.1335	-93.1804	19.1335	18.6448	-107.457	45.6931	40.4111	-102.806	-23.2946	51.8765	-88.5327	-27.8841	27.3854	-76.2211	-34.9771	7.31478	-143.057	-26.2266	76.193	-158.536	-23.7696	105.468	-178.52	-12.9417	78.7725	
231	1.925	-185.497	34.4737	78.7254	-168.262	62.3014	54.8023	-141.662	71.5458	34.3543	-114.882	66.9015	23.7703	-170.31	-4.62767	10.7662	-162.687	-10.6775	-14.1129	-147.432	-19.469	-41.6877	-137.468	5.39172	7.63438	-119.715	38.4056	2.29029	-126.911	60.0224	35.1534	-116.251	2.64338	19.2801	-100.974	29.4975	15.4347	-114.944	52.4585	40.3435	-108.762	-13.3367	46.2236	-93.507	-16.7712	22.882	-82.9618	-23.8115	4.37183	-145.547	-21.8291	73.4011	-156.618	-23.2996	104.468	-180.341	-10.3278	77.8151	
